<?xml version="1.0" encoding="UTF-8" standalone="no"?><svg xmlns="http://www.w3.org/2000/svg" xmlns:xlink="http://www.w3.org/1999/xlink" contentScriptType="application/ecmascript" contentStyleType="text/css" height="783px" preserveAspectRatio="none" style="width:1343px;height:783px;background:#FFFFFF;" version="1.1" viewBox="0 0 1343 783" width="1343px" zoomAndPan="magnify"><defs><filter height="300%" id="fegj8em7bw7ov" width="300%" x="-1" y="-1"><feGaussianBlur result="blurOut" stdDeviation="2.0"/><feColorMatrix in="blurOut" result="blurOut2" type="matrix" values="0 0 0 0 0 0 0 0 0 0 0 0 0 0 0 0 0 0 .4 0"/><feOffset dx="4.0" dy="4.0" in="blurOut2" result="blurOut3"/><feBlend in="SourceGraphic" in2="blurOut3" mode="normal"/></filter></defs><g><!--MD5=[84718776d214be480e4c259efcb737fc]
class Main--><rect codeLine="1" fill="#FEFECE" filter="url(#fegj8em7bw7ov)" height="73.9102" id="Main" style="stroke:#A80036;stroke-width:1.5;" width="92" x="412" y="7"/><ellipse cx="441.85" cy="23" fill="#ADD1B2" rx="11" ry="11" style="stroke:#A80036;stroke-width:1.0;"/><path d="M444.3231,29.1431 Q443.7421,29.4419 443.1029,29.5913 Q442.4638,29.7407 441.7582,29.7407 Q439.2514,29.7407 437.9315,28.0889 Q436.6117,26.437 436.6117,23.3159 Q436.6117,20.1865 437.9315,18.5347 Q439.2514,16.8828 441.7582,16.8828 Q442.4638,16.8828 443.1112,17.0322 Q443.7587,17.1816 444.3231,17.4805 L444.3231,20.2031 Q443.6923,19.6221 443.0988,19.3523 Q442.5053,19.0825 441.8744,19.0825 Q440.5297,19.0825 439.8449,20.1492 Q439.1601,21.2158 439.1601,23.3159 Q439.1601,25.4077 439.8449,26.4744 Q440.5297,27.541 441.8744,27.541 Q442.5053,27.541 443.0988,27.2712 Q443.6923,27.0015 444.3231,26.4204 Z " fill="#000000"/><text fill="#000000" font-family="sans-serif" font-size="12" lengthAdjust="spacing" textLength="27" x="459.15" y="27.5352">Main</text><line style="stroke:#A80036;stroke-width:1.5;" x1="413" x2="503" y1="39" y2="39"/><line style="stroke:#A80036;stroke-width:1.5;" x1="413" x2="503" y1="47" y2="47"/><ellipse cx="423" cy="58" fill="#84BE84" rx="3" ry="3" style="stroke:#038048;stroke-width:1.0;"/><text fill="#000000" font-family="sans-serif" font-size="11" lengthAdjust="spacing" textLength="33" x="432" y="61.6348">Main()</text><ellipse cx="423" cy="70.9551" fill="#84BE84" rx="3" ry="3" style="stroke:#038048;stroke-width:1.0;"/><text fill="#000000" font-family="sans-serif" font-size="11" lengthAdjust="spacing" textLength="66" x="432" y="74.5898">main() : void</text><!--MD5=[cf8fdaefc782a1097e8f7fd601adea66]
class People--><rect codeLine="24" fill="#FEFECE" filter="url(#fegj8em7bw7ov)" height="125.7305" id="People" style="stroke:#A80036;stroke-width:1.5;" width="289" x="313.5" y="158"/><ellipse cx="434.25" cy="174" fill="#ADD1B2" rx="11" ry="11" style="stroke:#A80036;stroke-width:1.0;"/><path d="M436.7231,180.1431 Q436.1421,180.4419 435.5029,180.5913 Q434.8638,180.7407 434.1582,180.7407 Q431.6514,180.7407 430.3315,179.0889 Q429.0117,177.437 429.0117,174.3159 Q429.0117,171.1865 430.3315,169.5347 Q431.6514,167.8828 434.1582,167.8828 Q434.8638,167.8828 435.5112,168.0322 Q436.1587,168.1816 436.7231,168.4805 L436.7231,171.2031 Q436.0923,170.6221 435.4988,170.3523 Q434.9053,170.0825 434.2744,170.0825 Q432.9297,170.0825 432.2449,171.1492 Q431.5601,172.2158 431.5601,174.3159 Q431.5601,176.4077 432.2449,177.4744 Q432.9297,178.541 434.2744,178.541 Q434.9053,178.541 435.4988,178.2712 Q436.0923,178.0015 436.7231,177.4204 Z " fill="#000000"/><text fill="#000000" font-family="sans-serif" font-size="12" lengthAdjust="spacing" textLength="39" x="454.75" y="178.5352">People</text><line style="stroke:#A80036;stroke-width:1.5;" x1="314.5" x2="601.5" y1="190" y2="190"/><rect fill="none" height="6" style="stroke:#C82930;stroke-width:1.0;" width="6" x="321.5" y="198"/><text fill="#000000" font-family="sans-serif" font-size="11" lengthAdjust="spacing" textLength="141" x="333.5" y="204.6348">sortStrategy : SortStrategy</text><rect fill="none" height="6" style="stroke:#C82930;stroke-width:1.0;" width="6" x="321.5" y="210.9551"/><text fill="#000000" font-family="sans-serif" font-size="11" lengthAdjust="spacing" textLength="133" x="333.5" y="217.5898">members : List&lt;Person&gt;</text><line style="stroke:#A80036;stroke-width:1.5;" x1="314.5" x2="601.5" y1="223.9102" y2="223.9102"/><ellipse cx="324.5" cy="234.9102" fill="#84BE84" rx="3" ry="3" style="stroke:#038048;stroke-width:1.0;"/><text fill="#000000" font-family="sans-serif" font-size="11" lengthAdjust="spacing" textLength="43" x="333.5" y="238.5449">People()</text><ellipse cx="324.5" cy="247.8652" fill="#84BE84" rx="3" ry="3" style="stroke:#038048;stroke-width:1.0;"/><text fill="#000000" font-family="sans-serif" font-size="11" lengthAdjust="spacing" textLength="156" x="333.5" y="251.5">addMember(p : Person) : void</text><ellipse cx="324.5" cy="260.8203" fill="#84BE84" rx="3" ry="3" style="stroke:#038048;stroke-width:1.0;"/><text fill="#000000" font-family="sans-serif" font-size="11" lengthAdjust="spacing" textLength="155" x="333.5" y="264.4551">print(out : PrintStream) : void</text><ellipse cx="324.5" cy="273.7754" fill="#84BE84" rx="3" ry="3" style="stroke:#038048;stroke-width:1.0;"/><text fill="#000000" font-family="sans-serif" font-size="11" lengthAdjust="spacing" textLength="263" x="333.5" y="277.4102">setSortStrategy(sortStrategy : SortStrategy) : void</text><!--MD5=[09ce52be0ee7de43c61b6e2d59bf108b]
class Person--><rect codeLine="11" fill="#FEFECE" filter="url(#fegj8em7bw7ov)" height="164.5957" id="Person" style="stroke:#A80036;stroke-width:1.5;" width="170" x="324" y="605"/><ellipse cx="385.25" cy="621" fill="#ADD1B2" rx="11" ry="11" style="stroke:#A80036;stroke-width:1.0;"/><path d="M387.7231,627.1431 Q387.1421,627.4419 386.5029,627.5913 Q385.8638,627.7407 385.1582,627.7407 Q382.6514,627.7407 381.3315,626.0889 Q380.0117,624.437 380.0117,621.3159 Q380.0117,618.1865 381.3315,616.5347 Q382.6514,614.8828 385.1582,614.8828 Q385.8638,614.8828 386.5112,615.0322 Q387.1587,615.1816 387.7231,615.4805 L387.7231,618.2031 Q387.0923,617.6221 386.4988,617.3523 Q385.9053,617.0825 385.2744,617.0825 Q383.9297,617.0825 383.2449,618.1492 Q382.5601,619.2158 382.5601,621.3159 Q382.5601,623.4077 383.2449,624.4744 Q383.9297,625.541 385.2744,625.541 Q385.9053,625.541 386.4988,625.2712 Q387.0923,625.0015 387.7231,624.4204 Z " fill="#000000"/><text fill="#000000" font-family="sans-serif" font-size="12" lengthAdjust="spacing" textLength="39" x="405.75" y="625.5352">Person</text><line style="stroke:#A80036;stroke-width:1.5;" x1="325" x2="493" y1="637" y2="637"/><rect fill="none" height="6" style="stroke:#C82930;stroke-width:1.0;" width="6" x="332" y="645"/><text fill="#000000" font-family="sans-serif" font-size="11" lengthAdjust="spacing" textLength="66" x="344" y="651.6348">age : Integer</text><rect fill="none" height="6" style="stroke:#C82930;stroke-width:1.0;" width="6" x="332" y="657.9551"/><text fill="#000000" font-family="sans-serif" font-size="11" lengthAdjust="spacing" textLength="81" x="344" y="664.5898">height : Integer</text><rect fill="none" height="6" style="stroke:#C82930;stroke-width:1.0;" width="6" x="332" y="670.9102"/><text fill="#000000" font-family="sans-serif" font-size="11" lengthAdjust="spacing" textLength="70" x="344" y="677.5449">name : String</text><rect fill="none" height="6" style="stroke:#C82930;stroke-width:1.0;" width="6" x="332" y="683.8652"/><text fill="#000000" font-family="sans-serif" font-size="11" lengthAdjust="spacing" textLength="82" x="344" y="690.5">weight : Integer</text><line style="stroke:#A80036;stroke-width:1.5;" x1="325" x2="493" y1="696.8203" y2="696.8203"/><ellipse cx="335" cy="707.8203" fill="#84BE84" rx="3" ry="3" style="stroke:#038048;stroke-width:1.0;"/><text fill="#000000" font-family="sans-serif" font-size="11" lengthAdjust="spacing" textLength="45" x="344" y="711.4551">Person()</text><ellipse cx="335" cy="720.7754" fill="#84BE84" rx="3" ry="3" style="stroke:#038048;stroke-width:1.0;"/><text fill="#000000" font-family="sans-serif" font-size="11" lengthAdjust="spacing" textLength="132" x="344" y="724.4102">«get/set» name() : String</text><ellipse cx="335" cy="733.7305" fill="#84BE84" rx="3" ry="3" style="stroke:#038048;stroke-width:1.0;"/><text fill="#000000" font-family="sans-serif" font-size="11" lengthAdjust="spacing" textLength="143" x="344" y="737.3652">«get/set» height() : Integer</text><ellipse cx="335" cy="746.6855" fill="#84BE84" rx="3" ry="3" style="stroke:#038048;stroke-width:1.0;"/><text fill="#000000" font-family="sans-serif" font-size="11" lengthAdjust="spacing" textLength="144" x="344" y="750.3203">«get/set» weight() : Integer</text><ellipse cx="335" cy="759.6406" fill="#84BE84" rx="3" ry="3" style="stroke:#038048;stroke-width:1.0;"/><text fill="#000000" font-family="sans-serif" font-size="11" lengthAdjust="spacing" textLength="128" x="344" y="763.2754">«get/set» age() : Integer</text><!--MD5=[0d9a43a39e25c5d2daee3f6472852af0]
class WeightStrategy--><rect codeLine="55" fill="#FEFECE" filter="url(#fegj8em7bw7ov)" height="60.9551" id="WeightStrategy" style="stroke:#A80036;stroke-width:1.5;" width="247" x="800.5" y="483"/><ellipse cx="877.75" cy="499" fill="#ADD1B2" rx="11" ry="11" style="stroke:#A80036;stroke-width:1.0;"/><path d="M880.2231,505.1431 Q879.6421,505.4419 879.0029,505.5913 Q878.3638,505.7407 877.6582,505.7407 Q875.1514,505.7407 873.8315,504.0889 Q872.5117,502.437 872.5117,499.3159 Q872.5117,496.1865 873.8315,494.5347 Q875.1514,492.8828 877.6582,492.8828 Q878.3638,492.8828 879.0112,493.0322 Q879.6587,493.1816 880.2231,493.4805 L880.2231,496.2031 Q879.5923,495.6221 878.9988,495.3523 Q878.4053,495.0825 877.7744,495.0825 Q876.4297,495.0825 875.7449,496.1492 Q875.0601,497.2158 875.0601,499.3159 Q875.0601,501.4077 875.7449,502.4744 Q876.4297,503.541 877.7744,503.541 Q878.4053,503.541 878.9988,503.2712 Q879.5923,503.0015 880.2231,502.4204 Z " fill="#000000"/><text fill="#000000" font-family="sans-serif" font-size="12" lengthAdjust="spacing" textLength="84" x="898.25" y="503.5352">WeightStrategy</text><line style="stroke:#A80036;stroke-width:1.5;" x1="801.5" x2="1046.5" y1="515" y2="515"/><line style="stroke:#A80036;stroke-width:1.5;" x1="801.5" x2="1046.5" y1="523" y2="523"/><ellipse cx="811.5" cy="534" fill="#84BE84" rx="3" ry="3" style="stroke:#038048;stroke-width:1.0;"/><text fill="#000000" font-family="sans-serif" font-size="11" lengthAdjust="spacing" textLength="221" x="820.5" y="537.6348">customSort(people : List&lt;Person&gt;) : void</text><!--MD5=[8e0a0a9ac050e6d846a9bccac69c9fbb]
class AgeSortStrategy--><rect codeLine="67" fill="#FEFECE" filter="url(#fegj8em7bw7ov)" height="60.9551" id="AgeSortStrategy" style="stroke:#A80036;stroke-width:1.5;" width="247" x="1082.5" y="483"/><ellipse cx="1156.75" cy="499" fill="#ADD1B2" rx="11" ry="11" style="stroke:#A80036;stroke-width:1.0;"/><path d="M1159.2231,505.1431 Q1158.6421,505.4419 1158.0029,505.5913 Q1157.3638,505.7407 1156.6582,505.7407 Q1154.1514,505.7407 1152.8315,504.0889 Q1151.5117,502.437 1151.5117,499.3159 Q1151.5117,496.1865 1152.8315,494.5347 Q1154.1514,492.8828 1156.6582,492.8828 Q1157.3638,492.8828 1158.0112,493.0322 Q1158.6587,493.1816 1159.2231,493.4805 L1159.2231,496.2031 Q1158.5923,495.6221 1157.9988,495.3523 Q1157.4053,495.0825 1156.7744,495.0825 Q1155.4297,495.0825 1154.7449,496.1492 Q1154.0601,497.2158 1154.0601,499.3159 Q1154.0601,501.4077 1154.7449,502.4744 Q1155.4297,503.541 1156.7744,503.541 Q1157.4053,503.541 1157.9988,503.2712 Q1158.5923,503.0015 1159.2231,502.4204 Z " fill="#000000"/><text fill="#000000" font-family="sans-serif" font-size="12" lengthAdjust="spacing" textLength="90" x="1177.25" y="503.5352">AgeSortStrategy</text><line style="stroke:#A80036;stroke-width:1.5;" x1="1083.5" x2="1328.5" y1="515" y2="515"/><line style="stroke:#A80036;stroke-width:1.5;" x1="1083.5" x2="1328.5" y1="523" y2="523"/><ellipse cx="1093.5" cy="534" fill="#84BE84" rx="3" ry="3" style="stroke:#038048;stroke-width:1.0;"/><text fill="#000000" font-family="sans-serif" font-size="11" lengthAdjust="spacing" textLength="221" x="1102.5" y="537.6348">customSort(people : List&lt;Person&gt;) : void</text><!--MD5=[ae02baf58179ba852507205754c89be4]
class HeightSortStrategy--><rect codeLine="61" fill="#FEFECE" filter="url(#fegj8em7bw7ov)" height="60.9551" id="HeightSortStrategy" style="stroke:#A80036;stroke-width:1.5;" width="247" x="164.5" y="483"/><ellipse cx="231.25" cy="499" fill="#ADD1B2" rx="11" ry="11" style="stroke:#A80036;stroke-width:1.0;"/><path d="M233.7231,505.1431 Q233.1421,505.4419 232.5029,505.5913 Q231.8638,505.7407 231.1582,505.7407 Q228.6514,505.7407 227.3315,504.0889 Q226.0117,502.437 226.0117,499.3159 Q226.0117,496.1865 227.3315,494.5347 Q228.6514,492.8828 231.1582,492.8828 Q231.8638,492.8828 232.5112,493.0322 Q233.1587,493.1816 233.7231,493.4805 L233.7231,496.2031 Q233.0923,495.6221 232.4988,495.3523 Q231.9053,495.0825 231.2744,495.0825 Q229.9297,495.0825 229.2449,496.1492 Q228.5601,497.2158 228.5601,499.3159 Q228.5601,501.4077 229.2449,502.4744 Q229.9297,503.541 231.2744,503.541 Q231.9053,503.541 232.4988,503.2712 Q233.0923,503.0015 233.7231,502.4204 Z " fill="#000000"/><text fill="#000000" font-family="sans-serif" font-size="12" lengthAdjust="spacing" textLength="105" x="251.75" y="503.5352">HeightSortStrategy</text><line style="stroke:#A80036;stroke-width:1.5;" x1="165.5" x2="410.5" y1="515" y2="515"/><line style="stroke:#A80036;stroke-width:1.5;" x1="165.5" x2="410.5" y1="523" y2="523"/><ellipse cx="175.5" cy="534" fill="#84BE84" rx="3" ry="3" style="stroke:#038048;stroke-width:1.0;"/><text fill="#000000" font-family="sans-serif" font-size="11" lengthAdjust="spacing" textLength="221" x="184.5" y="537.6348">customSort(people : List&lt;Person&gt;) : void</text><!--MD5=[24cac15c1f9aefe6275c5d949d6c000c]
class SortStrategy--><rect codeLine="41" fill="#FEFECE" filter="url(#fegj8em7bw7ov)" height="60.9551" id="SortStrategy" style="stroke:#A80036;stroke-width:1.5;" width="247" x="547.5" y="361"/><ellipse cx="632.75" cy="377" fill="#B4A7E5" rx="11" ry="11" style="stroke:#A80036;stroke-width:1.0;"/><path d="M629.1777,373.2651 L629.1777,371.1069 L636.5571,371.1069 L636.5571,373.2651 L634.0918,373.2651 L634.0918,381.3418 L636.5571,381.3418 L636.5571,383.5 L629.1777,383.5 L629.1777,381.3418 L631.6431,381.3418 L631.6431,373.2651 Z " fill="#000000"/><text fill="#000000" font-family="sans-serif" font-size="12" font-style="italic" lengthAdjust="spacing" textLength="68" x="653.25" y="381.5352">SortStrategy</text><line style="stroke:#A80036;stroke-width:1.5;" x1="548.5" x2="793.5" y1="393" y2="393"/><line style="stroke:#A80036;stroke-width:1.5;" x1="548.5" x2="793.5" y1="401" y2="401"/><ellipse cx="558.5" cy="412" fill="#84BE84" rx="3" ry="3" style="stroke:#038048;stroke-width:1.0;"/><text fill="#000000" font-family="sans-serif" font-size="11" lengthAdjust="spacing" textLength="221" x="567.5" y="415.6348">customSort(people : List&lt;Person&gt;) : void</text><!--MD5=[6b1b16963de3ac98b715edbb6b5898d8]
class NameSortStrategy--><rect codeLine="49" fill="#FEFECE" filter="url(#fegj8em7bw7ov)" height="60.9551" id="NameSortStrategy" style="stroke:#A80036;stroke-width:1.5;" width="247" x="446.5" y="483"/><ellipse cx="514.75" cy="499" fill="#ADD1B2" rx="11" ry="11" style="stroke:#A80036;stroke-width:1.0;"/><path d="M517.2231,505.1431 Q516.6421,505.4419 516.0029,505.5913 Q515.3638,505.7407 514.6582,505.7407 Q512.1514,505.7407 510.8315,504.0889 Q509.5117,502.437 509.5117,499.3159 Q509.5117,496.1865 510.8315,494.5347 Q512.1514,492.8828 514.6582,492.8828 Q515.3638,492.8828 516.0112,493.0322 Q516.6587,493.1816 517.2231,493.4805 L517.2231,496.2031 Q516.5923,495.6221 515.9988,495.3523 Q515.4053,495.0825 514.7744,495.0825 Q513.4297,495.0825 512.7449,496.1492 Q512.0601,497.2158 512.0601,499.3159 Q512.0601,501.4077 512.7449,502.4744 Q513.4297,503.541 514.7744,503.541 Q515.4053,503.541 515.9988,503.2712 Q516.5923,503.0015 517.2231,502.4204 Z " fill="#000000"/><text fill="#000000" font-family="sans-serif" font-size="12" lengthAdjust="spacing" textLength="102" x="535.25" y="503.5352">NameSortStrategy</text><line style="stroke:#A80036;stroke-width:1.5;" x1="447.5" x2="692.5" y1="515" y2="515"/><line style="stroke:#A80036;stroke-width:1.5;" x1="447.5" x2="692.5" y1="523" y2="523"/><ellipse cx="457.5" cy="534" fill="#84BE84" rx="3" ry="3" style="stroke:#038048;stroke-width:1.0;"/><text fill="#000000" font-family="sans-serif" font-size="11" lengthAdjust="spacing" textLength="221" x="466.5" y="537.6348">customSort(people : List&lt;Person&gt;) : void</text><!--MD5=[a4dc8fd7cb21c54154bac1a510c06957]
link Main to People--><path codeLine="5" d="M458,81.26 C458,101.92 458,128.45 458,152.78 " fill="none" id="Main-to-People" style="stroke:#A80036;stroke-width:1.0;stroke-dasharray:7.0,7.0;"/><polygon fill="#A80036" points="458,157.93,462,148.93,458,152.93,454,148.93,458,157.93" style="stroke:#A80036;stroke-width:1.0;"/><text fill="#000000" font-family="sans-serif" font-size="13" lengthAdjust="spacing" textLength="52" x="459" y="124.5684">«create»</text><!--MD5=[5bfaee343906c8867774b4afae1ac6de]
link Main to Person--><path codeLine="6" d="M411.75,52.72 C296.55,73.27 6,133.64 6,220 C6,220 6,220 6,514.5 C6,649.42 199.44,679.95 318.28,685.97 " fill="none" id="Main-to-Person" style="stroke:#A80036;stroke-width:1.0;stroke-dasharray:7.0,7.0;"/><polygon fill="#A80036" points="323.53,686.23,314.7221,681.8232,318.5352,686.0017,314.3567,689.8148,323.53,686.23" style="stroke:#A80036;stroke-width:1.0;"/><text fill="#000000" font-family="sans-serif" font-size="13" lengthAdjust="spacing" textLength="52" x="7" y="396.5684">«create»</text><!--MD5=[fbdba8233a6398946ce27db98ac4ba6e]
link Main to WeightStrategy--><path codeLine="7" d="M504.17,73.59 C537.62,95.15 583.24,126.33 620,158 C714.08,239.06 732.28,265.79 812,361 C844.66,400 878.97,447.53 900.87,478.83 " fill="none" id="Main-to-WeightStrategy" style="stroke:#A80036;stroke-width:1.0;stroke-dasharray:7.0,7.0;"/><polygon fill="#A80036" points="903.75,482.94,901.8635,473.2735,900.8817,478.8445,895.3107,477.8627,903.75,482.94" style="stroke:#A80036;stroke-width:1.0;"/><text fill="#000000" font-family="sans-serif" font-size="13" lengthAdjust="spacing" textLength="52" x="787" y="327.5684">«create»</text><!--MD5=[f1b49bbc0d4bc9ad052e23595b8a91ac]
link Main to AgeSortStrategy--><path codeLine="8" d="M504.21,62.61 C555.6,82.92 640.41,118.61 709,158 C888.45,261.06 1083.29,413.14 1165.64,479.5 " fill="none" id="Main-to-AgeSortStrategy" style="stroke:#A80036;stroke-width:1.0;stroke-dasharray:7.0,7.0;"/><polygon fill="#A80036" points="1169.96,482.98,1165.4584,474.2201,1166.0655,479.8443,1160.4413,480.4514,1169.96,482.98" style="stroke:#A80036;stroke-width:1.0;"/><text fill="#000000" font-family="sans-serif" font-size="13" lengthAdjust="spacing" textLength="52" x="971" y="327.5684">«create»</text><!--MD5=[481763f6d1e221ed29d600945712cfde]
link Main to HeightSortStrategy--><path codeLine="9" d="M411.9,69.03 C376.74,89.12 328.91,120.5 296,158 C244.47,216.72 233.53,238.11 215,314 C200.46,373.54 235.92,439.83 262.35,478.75 " fill="none" id="Main-to-HeightSortStrategy" style="stroke:#A80036;stroke-width:1.0;stroke-dasharray:7.0,7.0;"/><polygon fill="#A80036" points="265.2,482.89,263.3746,473.2118,262.3577,478.7765,256.793,477.7595,265.2,482.89" style="stroke:#A80036;stroke-width:1.0;"/><text fill="#000000" font-family="sans-serif" font-size="13" lengthAdjust="spacing" textLength="52" x="216" y="327.5684">«create»</text><!--MD5=[a7f5c7da628e3d59504e8c45961fb70b]
link People to SortStrategy--><path codeLine="33" d="M533.3891,291.5777 C533.3891,291.5777 588.59,335.17 612.81,353.02 " fill="none" id="People-SortStrategy" style="stroke:#A80036;stroke-width:1.0;"/><polygon fill="#A80036" points="623.62,360.91,618.7051,352.3751,619.5801,357.9639,613.9914,358.8389,623.62,360.91" style="stroke:#A80036;stroke-width:1.0;"/><line style="stroke:#A80036;stroke-width:1.0;" x1="619.5801" x2="613.12" y1="357.9639" y2="353.245"/><polygon fill="#A80036" points="524.06,284.03,526.2086,290.9136,533.3891,291.5777,531.2405,284.6942,524.06,284.03" style="stroke:#A80036;stroke-width:1.0;"/><!--MD5=[a7f5c7da628e3d59504e8c45961fb70b]
link People to SortStrategy--><path codeLine="34" d="M549.48,284.03 C581.98,308.97 616.34,336.7 640.39,357.62 " fill="none" id="People-to-SortStrategy" style="stroke:#A80036;stroke-width:1.0;stroke-dasharray:7.0,7.0;"/><polygon fill="#A80036" points="644.16,360.91,640.0016,351.9821,640.39,357.6256,634.7465,358.014,644.16,360.91" style="stroke:#A80036;stroke-width:1.0;"/><!--MD5=[229ad90aec11d960298b97a54d4095e1]
link People to Person--><path codeLine="35" d="M327.69,284 C254.5,328.89 170.21,396.76 130,483 C87.93,573.22 222.09,634.37 318.92,664.59 " fill="none" id="People-to-Person" style="stroke:#A80036;stroke-width:1.0;stroke-dasharray:7.0,7.0;"/><polygon fill="#A80036" points="323.79,666.09,316.363,659.6217,319.0108,664.6206,314.0119,667.2684,323.79,666.09" style="stroke:#A80036;stroke-width:1.0;"/><!--MD5=[229ad90aec11d960298b97a54d4095e1]
link People to Person--><path codeLine="36" d="M347.5735,290.6686 C347.5735,290.6686 203.09,401.3 165,483 C127.83,562.73 228.27,619.76 311.54,652.8 " fill="none" id="People-Person" style="stroke:#A80036;stroke-width:1.0;"/><polygon fill="#A80036" points="323.68,657.5,316.7334,650.5183,319.0178,655.6933,313.8427,657.9778,323.68,657.5" style="stroke:#A80036;stroke-width:1.0;"/><line style="stroke:#A80036;stroke-width:1.0;" x1="319.0178" x2="311.555" y1="655.6933" y2="652.805"/><polygon fill="#A80036" points="357.55,284,350.3389,284.0088,347.5735,290.6686,354.7846,290.6598,357.55,284" style="stroke:#A80036;stroke-width:1.0;"/><!--MD5=[23238b4778499775fcc898d4ee93e60e]
link People to NameSortStrategy--><path codeLine="37" d="M452.66,284 C451.68,325.08 455.43,379.09 476,422 C486.74,444.41 505.54,464.23 523.52,479.57 " fill="none" id="People-to-NameSortStrategy" style="stroke:#A80036;stroke-width:1.0;stroke-dasharray:7.0,7.0;"/><polygon fill="#A80036" points="527.58,482.97,523.2591,474.1196,523.7506,479.755,518.1152,480.2466,527.58,482.97" style="stroke:#A80036;stroke-width:1.0;"/><text fill="#000000" font-family="sans-serif" font-size="13" lengthAdjust="spacing" textLength="52" x="477" y="396.5684">«create»</text><!--MD5=[f35cf4ccda0c1f3d38ef7fdefaec20d4]
link SortStrategy to Person--><path codeLine="44" d="M691.86,422.24 C711.61,454.43 734.96,506.2 711,544 C664.85,616.8 570.44,653.11 499.39,670.75 " fill="none" id="SortStrategy-to-Person" style="stroke:#A80036;stroke-width:1.0;stroke-dasharray:7.0,7.0;"/><polygon fill="#A80036" points="494.32,671.99,504.0119,673.7415,499.1774,670.8042,502.1146,665.9697,494.32,671.99" style="stroke:#A80036;stroke-width:1.0;"/><!--MD5=[0fba23228dfbc735298fb8cc037ac0b1]
reverse link SortStrategy to NameSortStrategy--><path d="M632.89,437.78 C620.22,452.83 606.45,469.19 595.03,482.76 " fill="none" id="SortStrategy-backto-NameSortStrategy" style="stroke:#A80036;stroke-width:1.0;stroke-dasharray:7.0,7.0;"/><polygon fill="none" points="627.8,432.96,646.03,422.16,638.51,441.97,627.8,432.96" style="stroke:#A80036;stroke-width:1.0;"/><!--MD5=[28d9a33d9ce77df2f2bc1982df04076e]
link NameSortStrategy to Person--><path codeLine="50" d="M542.32,544.07 C527.43,559.98 508.21,580.51 489.03,601 " fill="none" id="NameSortStrategy-to-Person" style="stroke:#A80036;stroke-width:1.0;stroke-dasharray:7.0,7.0;"/><polygon fill="#A80036" points="485.45,604.83,494.5231,600.9987,488.8692,601.1819,488.6861,595.528,485.45,604.83" style="stroke:#A80036;stroke-width:1.0;"/><!--MD5=[5e341ce4ffd1b36a6061c92f9c8d9c60]
reverse link SortStrategy to WeightStrategy--><path d="M751.77,430.81 C787.32,447.67 828.44,467.18 861.59,482.9 " fill="none" id="SortStrategy-backto-WeightStrategy" style="stroke:#A80036;stroke-width:1.0;stroke-dasharray:7.0,7.0;"/><polygon fill="none" points="748.29,436.9,733.21,422.01,754.29,424.26,748.29,436.9" style="stroke:#A80036;stroke-width:1.0;"/><!--MD5=[1f38c7e96371b5494675ce102c449fef]
link WeightStrategy to Person--><path codeLine="56" d="M853.79,544.05 C828.5,554.32 799.63,565.6 773,575 C680.6,607.6 573.15,639.83 499.07,661.19 " fill="none" id="WeightStrategy-to-Person" style="stroke:#A80036;stroke-width:1.0;stroke-dasharray:7.0,7.0;"/><polygon fill="#A80036" points="494.24,662.58,503.9963,663.9268,499.0438,661.1932,501.7774,656.2407,494.24,662.58" style="stroke:#A80036;stroke-width:1.0;"/><!--MD5=[d0c7a563b171ad5f17e28c7b104f5cab]
reverse link SortStrategy to HeightSortStrategy--><path d="M557.58,428.04 C501.83,445.5 435.43,466.31 382.48,482.9 " fill="none" id="SortStrategy-backto-HeightSortStrategy" style="stroke:#A80036;stroke-width:1.0;stroke-dasharray:7.0,7.0;"/><polygon fill="none" points="555.64,421.31,576.82,422.01,559.82,434.67,555.64,421.31" style="stroke:#A80036;stroke-width:1.0;"/><!--MD5=[678bea546e766b0ac58db5ac8968c374]
link HeightSortStrategy to Person--><path codeLine="62" d="M308.8,544.07 C319.9,559.85 334.2,580.17 348.5,600.49 " fill="none" id="HeightSortStrategy-to-Person" style="stroke:#A80036;stroke-width:1.0;stroke-dasharray:7.0,7.0;"/><polygon fill="#A80036" points="351.55,604.83,349.6251,595.1711,348.6655,600.746,343.0906,599.7863,351.55,604.83" style="stroke:#A80036;stroke-width:1.0;"/><!--MD5=[52ad52f8e047c32bd8c154980850220b]
reverse link SortStrategy to AgeSortStrategy--><path d="M814.44,424.67 C898.06,443.43 1002.47,466.85 1082.44,484.78 " fill="none" id="SortStrategy-backto-AgeSortStrategy" style="stroke:#A80036;stroke-width:1.0;stroke-dasharray:7.0,7.0;"/><polygon fill="none" points="812.73,431.46,794.75,420.26,815.8,417.8,812.73,431.46" style="stroke:#A80036;stroke-width:1.0;"/><!--MD5=[af62f0a81685af49ded5f2baae761927]
link AgeSortStrategy to Person--><path codeLine="68" d="M1082.34,541.19 C920.84,576.04 641.92,636.23 499.05,667.07 " fill="none" id="AgeSortStrategy-to-Person" style="stroke:#A80036;stroke-width:1.0;stroke-dasharray:7.0,7.0;"/><polygon fill="#A80036" points="494.02,668.15,503.6624,670.1562,498.9069,667.0926,501.9705,662.3371,494.02,668.15" style="stroke:#A80036;stroke-width:1.0;"/><!--MD5=[931db612ae1cdc2cb276a0f98c2c64fd]
@startuml
class Main {
    + Main()
    + main() : void
}
Main ..> People : <<create>>
Main ..> Person : <<create>>
Main ..> WeightStrategy : <<create>>
Main ..> AgeSortStrategy : <<create>>
Main ..> HeightSortStrategy : <<create>>

class Person {
    - age : Integer
    - height : Integer
    - name : String
    - weight : Integer

    + Person()
    + <<get/set>> name() : String
    + <<get/set>> height() : Integer
    + <<get/set>> weight() : Integer
    + <<get/set>> age() : Integer
}

class People {
 - sortStrategy : SortStrategy
 - members : List<Person>

 + People()
 + addMember(p : Person) : void
 + print(out : PrintStream) : void
 + setSortStrategy(sortStrategy : SortStrategy) : void
}
People *- -> SortStrategy
People ..> SortStrategy
People ..> Person
People *- -> Person
People ..> NameSortStrategy :  "<<create>>"



interface SortStrategy {
    + customSort(people : List<Person>) : void
}
SortStrategy ..> Person

class NameSortStrategy {
    + customSort(people : List<Person>) : void
}
class NameSortStrategy implements SortStrategy
NameSortStrategy ..> Person

class WeightStrategy {
    + customSort(people : List<Person>) : void
}
class WeightStrategy implements SortStrategy
WeightStrategy ..> Person

class HeightSortStrategy {
    + customSort(people : List<Person>) : void
}
class HeightSortStrategy implements SortStrategy
HeightSortStrategy ..> Person

class AgeSortStrategy {
    + customSort(people : List<Person>) : void
}
class AgeSortStrategy implements SortStrategy
AgeSortStrategy ..> Person
@enduml

PlantUML version 1.2022.0(Tue Jan 11 23:16:42 ICT 2022)
(GPL source distribution)
Java Runtime: OpenJDK Runtime Environment
JVM: OpenJDK 64-Bit Server VM
Default Encoding: UTF-8
Language: en
Country: TH
--></g></svg>